# Blender v2.78 (sub 0) OBJ File: 'HardBlockNoJoin.blend'
# www.blender.org
mtllib HardBlockNoJoin.mtl
o Cube
v -0.832707 -1.000001 0.900000
v -0.833591 -0.987127 0.896459
v -0.879767 -1.000001 0.582695
v -0.871985 -0.610879 0.636422
v -0.418654 -1.000001 0.823370
v -0.610524 -0.734231 0.853914
v -0.900002 -0.333335 0.900000
v -0.864583 -0.079122 0.872216
v -0.870157 -0.119140 0.570103
v -0.552196 -0.102033 0.821645
v -0.900000 -1.000050 0.446269
v -0.813386 -1.000001 0.002783
v -0.805756 -0.332940 -0.000858
v -0.900000 -0.333335 0.448421
v -0.852251 -0.117046 0.340909
v -0.805760 -0.333335 -0.000851
v -0.810131 -0.136287 0.132577
v -0.130712 -1.000001 0.875045
v -0.174907 -0.621659 0.866888
v -0.416761 -0.333335 0.818728
v -0.414378 -0.113604 0.845666
v -0.121567 -0.124898 0.900000
v -0.807116 0.333332 0.827136
v -0.843661 0.071031 0.678129
v -0.660607 0.083118 0.823981
v -0.900002 0.999998 0.900000
v -0.857102 0.640046 0.657341
v -0.863989 1.000291 0.558357
v -0.583797 0.750180 0.872694
v -0.449569 1.001621 0.900126
v -0.560975 1.002454 0.575717
v -0.834548 0.258008 0.309473
v -0.820547 0.333331 0.450573
v -0.855882 0.167045 0.113637
v -0.852854 1.000381 0.452725
v -0.878560 0.637841 0.203440
v -0.899993 1.002190 -0.007817
v -0.426716 1.003428 0.444838
v -0.665809 1.002805 0.215789
v -0.411058 0.331858 0.899999
v -0.411979 0.333333 0.900000
v -0.232189 0.049647 0.900000
v -0.449941 1.000029 0.900000
v -0.364603 1.002779 0.679505
v -0.199020 0.639201 0.866145
v -0.442961 1.007080 0.119131
v -0.115358 1.037365 0.112288
v -0.813405 -1.000001 0.002690
v -0.847073 -0.740762 -0.165773
v -0.900000 -0.333378 -0.430595
v -0.857998 -0.117046 -0.113636
v -0.900000 -1.000001 -0.428578
v -0.900000 -0.708792 -0.594630
v -0.807346 -1.000001 -0.800393
v -0.900000 -0.333338 -0.808723
v -0.610128 -0.733839 -0.863554
v -0.873226 -0.107542 -0.557570
v -0.872265 -0.099440 -0.808206
v -0.414002 -0.333496 -0.900027
v -0.554264 -0.102423 -0.868020
v -0.417459 -1.000001 -0.900000
v 0.002188 -1.000001 -0.900001
v -0.414184 -0.333403 -0.900001
v -0.113636 -0.117046 -0.862548
v -0.897346 0.173252 -0.119742
v -0.829426 0.161604 -0.432072
v -0.803429 0.343922 -0.432616
v -0.900000 0.335428 -0.004485
v -0.900000 1.002192 -0.008122
v -0.450173 1.008521 -0.010179
v -0.802585 1.013408 -0.434636
v -0.850452 0.084518 -0.665582
v -0.820580 0.336428 -0.807242
v -0.663141 0.076970 -0.843174
v -0.809683 0.746376 -0.581608
v -0.865496 0.715094 -0.808564
v -0.900000 1.005976 -0.809579
v -0.638634 1.014972 -0.627981
v -0.575351 0.741023 -0.862373
v -0.449994 1.008521 -0.009988
v -0.000005 1.049998 -0.011857
v -0.417693 0.164798 -0.858635
v -0.419007 0.344088 -0.843742
v -0.145523 0.244622 -0.888213
v -0.000003 0.336390 -0.899998
v -0.389619 1.050001 -0.440528
v -0.407905 1.017037 -0.899996
v -0.407992 1.017171 -0.899998
v -0.183049 1.027087 -0.639551
v -0.001318 1.006934 -0.814594
v 0.008323 -1.000001 0.900000
v 0.010534 -0.333335 0.900000
v 0.411103 -1.000001 0.833658
v 0.113636 -0.117046 0.880493
v 0.557761 -1.000001 0.853559
v 0.627789 -0.618733 0.900000
v 0.899998 -1.000001 0.900000
v 0.874218 -0.915236 0.900039
v 0.863777 -0.723343 0.605374
v 0.424026 -0.333335 0.900000
v 0.554028 -0.103540 0.874223
v 0.812716 -0.333333 0.858980
v 0.810063 -0.109886 0.847535
v 0.829300 -0.112076 0.561926
v 0.899999 -1.000008 0.425469
v 0.809810 -1.000001 0.000317
v 0.841336 -0.333331 0.433311
v 0.860795 -0.112127 0.427514
v 0.899998 -0.333334 0.000425
v 0.899998 -0.130086 0.127034
v -0.011106 0.199818 0.853705
v 0.433540 0.163777 0.843996
v 0.436947 0.341910 0.823928
v 0.011678 0.336197 0.837717
v -0.001477 1.015831 0.809693
v 0.449867 1.012004 0.900000
v 0.002558 1.014186 0.438698
v 0.661497 0.086423 0.852913
v 0.429547 0.341926 0.823920
v 0.819260 0.072462 0.669211
v 0.804726 0.339595 0.824513
v 0.649940 0.648820 0.858860
v 0.663987 1.008498 0.650596
v 0.855747 0.698872 0.864791
v 0.899999 1.010293 0.900002
v 0.837383 0.747935 0.579262
v 0.899998 0.333518 0.415830
v 0.899999 0.046772 0.237204
v 0.430211 1.050002 0.431717
v 0.661637 1.029506 0.211371
v 0.857969 1.005306 0.424673
v 0.880144 0.652022 0.194453
v 0.899996 1.008395 -0.015581
v 0.128812 -1.000001 -0.882631
v 0.182556 -0.612305 -0.824687
v 0.450382 -1.000001 -0.838519
v -0.010160 -0.333335 -0.814735
v 0.123898 -0.125391 -0.841301
v 0.456309 -0.333340 -0.899998
v 0.444099 -0.108299 -0.899998
v 0.831958 -1.000001 -0.099972
v 0.899999 -0.623940 -0.177649
v 0.899999 -1.000002 -0.408082
v 0.878113 -0.117046 -0.113636
v 0.572117 -1.000001 -0.831330
v 0.640591 -0.610221 -0.863435
v 0.899999 -1.000001 -0.568182
v 0.856486 -0.650289 -0.608883
v 0.899999 -1.000002 -0.811965
v 0.572531 -0.121809 -0.882393
v 0.817051 -0.333342 -0.424830
v 0.818889 -0.112600 -0.563783
v 0.899999 -0.333335 -0.899998
v 0.871098 -0.084390 -0.879279
v 0.246371 1.033885 -0.530189
v 0.235362 0.047505 -0.863390
v 0.420103 0.334050 -0.899998
v 0.023275 1.050004 -0.446424
v 0.198315 0.655223 -0.871110
v 0.373781 1.024415 -0.786345
v 0.425536 1.020511 -0.838012
v 0.899999 0.165046 -0.013855
v 0.813188 0.162998 -0.437292
v 0.811863 0.333329 -0.441572
v 0.449956 1.015499 -0.013721
v 0.899998 0.335681 -0.011664
v 0.678230 0.070561 -0.866381
v 0.820350 0.062755 -0.674173
v 0.822605 0.333335 -0.844512
v 0.646010 0.647617 -0.899998
v 0.898438 1.000247 -0.899796
v 0.849255 1.004411 -0.458317
vn -0.9893 -0.0012 0.1456
vn 0.1742 0.0251 0.9844
vn -0.9904 0.1380 -0.0000
vn 0.1653 0.0844 0.9826
vn -0.9814 0.0102 -0.1917
vn -0.9720 0.1149 -0.2049
vn -0.1766 0.0006 0.9843
vn -0.1856 -0.1176 0.9756
vn -0.1801 -0.1178 0.9766
vn -0.9892 -0.0005 0.1467
vn -0.9809 0.1793 -0.0750
vn -0.9949 -0.1008 0.0004
vn 0.1695 0.0091 0.9855
vn -0.9787 0.0007 -0.2053
vn -0.1868 0.0074 0.9824
vn 0.1658 0.0064 0.9861
vn -0.9924 0.1182 0.0354
vn -0.9934 -0.0478 -0.1048
vn 0.0001 -0.1085 0.9941
vn -0.0051 1.0000 0.0023
vn -0.9760 -0.1366 0.1698
vn -0.9948 0.0005 0.1018
vn -0.0071 1.0000 0.0047
vn 0.1442 0.0914 0.9853
vn 0.1957 0.0442 0.9797
vn -0.0347 0.9994 -0.0034
vn -0.1801 -0.1177 0.9766
vn -0.0996 -0.0553 0.9935
vn 0.0031 1.0000 0.0064
vn -0.0071 1.0000 0.0001
vn -0.9893 -0.1417 0.0353
vn 0.0000 -0.1086 0.9941
vn -0.9840 -0.0482 0.1716
vn 0.1454 0.0083 0.9893
vn -0.1813 -0.0103 0.9834
vn -0.0140 0.9998 0.0119
vn -0.9804 0.0006 0.1969
vn -0.9693 -0.1233 0.2126
vn -0.9612 -0.1366 -0.2395
vn -0.2473 -0.0465 -0.9678
vn -0.9930 0.1177 0.0000
vn -0.1846 0.0241 -0.9825
vn -0.0000 -0.0000 -1.0000
vn 0.2051 -0.1167 -0.9718
vn -0.1847 0.0009 -0.9828
vn 0.1046 -0.0746 0.9917
vn -1.0000 0.0000 0.0000
vn -0.9767 0.0123 0.2142
vn -0.1846 0.0009 -0.9828
vn 0.2048 0.1279 -0.9704
vn 0.1491 0.0167 0.9887
vn -0.9668 0.1372 -0.2154
vn -0.9749 -0.0012 -0.2227
vn -0.0140 0.9996 0.0231
vn -0.9611 -0.1131 0.2520
vn -0.1801 -0.0248 -0.9833
vn -0.0252 0.9996 -0.0133
vn -0.0911 0.9924 0.0828
vn -0.1312 0.0811 -0.9880
vn 0.2069 0.1240 -0.9705
vn 0.0404 0.9965 -0.0728
vn -0.0868 0.9927 0.0835
vn -0.0918 0.0818 -0.9924
vn -0.0958 -0.0769 -0.9924
vn -0.0890 0.9937 -0.0674
vn -0.9891 0.1412 0.0425
vn -0.9755 0.0006 -0.2200
vn -0.1341 -0.0804 -0.9877
vn -0.9990 0.0014 0.0457
vn -0.0887 -0.0815 -0.9927
vn 0.1625 -0.0005 0.9867
vn 0.0000 0.0898 0.9960
vn 0.9873 0.1566 0.0257
vn -0.1219 -0.0870 0.9887
vn 0.9976 0.0153 0.0671
vn 0.1048 0.0521 0.9931
vn 0.9698 -0.1312 -0.2057
vn 0.9875 -0.0834 0.1338
vn -0.1339 -0.0956 0.9864
vn 0.9705 -0.0794 0.2274
vn 0.0000 -0.0990 0.9951
vn 0.9940 0.0970 0.0509
vn 0.1002 0.0776 0.9919
vn 0.9873 0.0853 0.1338
vn 0.9940 0.0867 0.0668
vn 0.0307 0.1113 0.9933
vn -0.1958 0.0366 0.9800
vn -0.0078 0.9967 0.0812
vn -0.0845 0.9932 -0.0807
vn -0.0009 0.1120 0.9937
vn 0.9877 -0.1306 -0.0860
vn -0.0007 -0.1126 0.9936
vn 0.0038 0.9999 -0.0108
vn 1.0000 0.0000 -0.0000
vn 0.9955 0.0006 0.0950
vn 0.1042 0.9944 0.0169
vn 0.1048 0.9916 0.0761
vn 0.0154 0.9969 -0.0765
vn -0.0835 0.9965 -0.0053
vn 0.1049 0.9916 0.0760
vn 0.0337 -0.1134 0.9930
vn -0.0020 -0.1114 0.9938
vn 0.9980 0.0624 0.0003
vn 0.9724 0.0579 0.2258
vn -0.0004 -0.1128 0.9936
vn 0.1348 0.1282 -0.9826
vn -0.1798 -0.0098 -0.9837
vn 0.9681 -0.1310 0.2138
vn 0.0468 0.9989 -0.0091
vn 0.9815 -0.0016 -0.1914
vn 0.9923 0.1235 -0.0000
vn 0.0587 -0.0922 -0.9940
vn -0.0007 -1.0000 0.0001
vn 0.9802 0.0996 0.1711
vn -0.0000 0.0829 -0.9966
vn 0.1366 0.0074 -0.9906
vn 0.0468 0.9988 0.0171
vn -0.1791 -0.0888 -0.9798
vn 0.9748 0.1165 -0.1901
vn 0.9848 0.0227 0.1719
vn -0.0000 -0.1309 -0.9914
vn 0.0756 0.9971 0.0049
vn -0.0007 -0.1263 -0.9920
vn -0.0583 0.1260 -0.9903
vn -0.0377 0.9928 -0.1135
vn 0.9796 0.0026 -0.2008
vn 0.9935 -0.0007 -0.1139
vn 0.9996 0.0084 0.0266
vn -0.1252 0.0902 -0.9880
vn 0.0716 0.9974 -0.0013
vn 0.0005 0.0899 -0.9959
vn 0.9780 -0.0595 -0.2002
vn -0.1767 0.0006 0.9843
vn 0.0808 0.0512 0.9954
vn -0.0036 1.0000 0.0037
vn 0.0815 -0.1778 -0.9807
vn -0.0000 1.0000 0.0000
vn -0.0017 0.9932 -0.1161
vn -0.9737 -0.1422 0.1782
vn 0.9768 -0.0125 -0.2138
vn 0.9947 0.0545 -0.0875
vn -0.9948 0.0005 0.1017
vn -0.0917 0.9957 0.0161
vn 0.0765 0.9940 0.0786
vn -0.9983 -0.0442 -0.0393
vn -0.9966 0.0806 -0.0196
vn -0.9977 0.0391 -0.0553
vn -0.9930 0.1178 -0.0000
vn 0.0042 0.0184 -0.9998
vn 0.0219 0.1042 0.9943
vn 0.9804 -0.0006 -0.1972
vn 0.9802 0.0995 0.1711
vn -0.9757 -0.1325 0.1747
vn 0.9984 -0.0243 -0.0509
vn 0.1063 0.1048 0.9888
vn 0.0425 -0.0952 -0.9946
vn -0.0237 0.9966 0.0793
vn -0.0238 0.9966 0.0794
vn -0.0249 0.9996 0.0094
vn -0.0917 0.9957 0.0157
vn 0.0157 0.9998 -0.0108
vn 0.9924 -0.0525 0.1111
vn 0.9935 -0.1108 0.0265
vn 0.1357 -0.0972 -0.9860
usemtl Material
s off
f 1//1 2//1 4//1 3//1
f 1//2 5//2 6//2 2//2
f 7//3 8//3 9//3 14//3
f 7//4 20//4 10//4 8//4
f 11//5 13//5 12//5
f 14//6 15//6 17//6 16//6
f 5//7 18//7 19//7
f 20//8 92//8 22//8 21//8
f 20//9 21//9 10//9
f 3//10 4//10 11//10
f 14//11 9//11 15//11
f 2//12 7//12 14//12 4//12
f 2//13 6//13 20//13 7//13
f 11//14 14//14 16//14 13//14
f 5//15 19//15 92//15 20//15
f 4//10 14//10 11//10
f 6//16 5//16 20//16
f 23//17 33//17 24//17
f 26//18 28//18 27//18
f 26//19 29//19 30//19
f 30//20 31//20 28//20 26//20
f 32//21 33//21 68//21 34//21
f 35//22 37//22 36//22
f 38//23 39//23 37//23 35//23
f 40//24 42//24 114//24 41//24
f 43//25 45//25 115//25
f 115//26 117//26 44//26 43//26
f 25//27 40//27 41//27 23//27
f 29//28 43//28 30//28
f 43//29 44//29 31//29 30//29
f 24//17 33//17 32//17
f 27//18 28//18 35//18
f 31//30 38//30 35//30 28//30
f 23//31 26//31 27//31 33//31
f 23//32 29//32 26//32
f 33//33 35//33 36//33 68//33
f 41//34 114//34 45//34 43//34
f 33//18 27//18 35//18
f 23//35 41//35 43//35 29//35
f 39//36 38//36 46//36
f 48//37 49//37 50//37 52//37
f 16//38 51//38 50//38
f 52//39 53//39 55//39 54//39
f 55//40 56//40 61//40 54//40
f 50//41 57//41 58//41 55//41
f 58//42 60//42 59//42 55//42
f 63//43 62//43 61//43
f 63//44 64//44 137//44
f 56//45 63//45 61//45
f 60//46 63//46 59//46
f 52//47 50//47 53//47
f 49//48 16//48 50//48
f 53//47 50//47 55//47
f 55//49 59//49 56//49
f 63//50 137//50 62//50
f 59//51 63//51 56//51
f 65//52 68//52 67//52 66//52
f 68//53 69//53 71//53
f 70//54 71//54 69//54
f 75//55 71//55 77//55 76//55
f 77//56 88//56 79//56 76//56
f 78//57 88//57 77//57 71//57
f 81//58 86//58 80//58
f 83//59 85//59 84//59 82//59
f 88//60 90//60 85//60 87//60
f 89//61 90//61 88//61 86//61
f 80//62 86//62 71//62 70//62
f 73//63 83//63 82//63 74//63
f 88//64 87//64 79//64
f 86//65 88//65 78//65
f 66//66 67//66 73//66 72//66
f 68//67 71//67 67//67
f 73//55 75//55 76//55
f 76//56 79//56 73//56
f 87//68 85//68 83//68
f 67//69 71//69 75//69 73//69
f 79//70 87//70 83//70 73//70
f 86//65 78//65 71//65
f 91//71 93//71 92//71
f 92//72 100//72 94//72
f 105//73 99//73 98//73 97//73
f 95//74 97//74 98//74 96//74
f 107//75 104//75 103//75 102//75
f 100//76 102//76 103//76 101//76
f 106//77 109//77 105//77
f 109//78 110//78 108//78 107//78
f 93//79 95//79 96//79
f 107//80 108//80 104//80
f 92//81 93//81 100//81
f 99//82 107//82 102//82 98//82
f 96//83 98//83 102//83 100//83
f 109//84 107//84 105//84
f 105//85 107//85 99//85
f 93//79 96//79 100//79
f 111//86 112//86 113//86 114//86
f 114//87 116//87 115//87
f 116//88 129//88 115//88
f 129//89 165//89 117//89
f 118//90 121//90 119//90
f 126//91 131//91 125//91 124//91
f 122//92 124//92 125//92 116//92
f 125//93 131//93 123//93 116//93
f 128//94 166//94 127//94
f 132//95 133//95 131//95
f 131//96 133//96 130//96 129//96
f 112//90 118//90 119//90 113//90
f 116//97 123//97 129//97
f 129//98 130//98 165//98
f 127//80 121//80 120//80
f 129//99 117//99 115//99
f 131//100 129//100 123//100
f 114//101 113//101 116//101
f 121//91 126//91 124//91
f 119//102 121//102 124//102 122//102
f 166//103 132//103 131//103 127//103
f 127//104 131//104 126//104 121//104
f 113//105 119//105 122//105 116//105
f 135//106 136//106 134//106
f 138//107 140//107 139//107 137//107
f 143//108 142//108 141//108
f 155//109 172//109 171//109 161//109 160//109
f 151//110 144//110 109//110
f 149//111 148//111 147//111
f 146//112 149//112 145//112
f 149//113 147//113 143//113 141//113 106//113 105//113 97//113 95//113 93//113 91//113 18//113 5//113 1//113 2//113 3//113 11//113 48//113 52//113 54//113 61//113 62//113 134//113 136//113 145//113
f 153//114 154//114 152//114 151//114
f 150//115 154//115 153//115 139//115
f 136//112 146//112 145//112
f 140//116 150//116 139//116
f 147//111 148//111 143//111
f 155//117 165//117 172//117
f 137//118 139//118 136//118 135//118
f 143//119 151//119 109//119 142//119
f 149//120 153//120 151//120 148//120
f 139//121 153//121 149//121 146//121
f 148//111 151//111 143//111
f 139//112 146//112 136//112
f 165//122 155//122 158//122 81//122
f 85//123 157//123 156//123
f 90//124 161//124 159//124
f 160//125 161//125 90//125 158//125
f 163//126 164//126 166//126 162//126
f 172//127 133//127 166//127
f 169//128 164//128 168//128
f 157//116 169//116 167//116
f 161//129 171//129 170//129
f 168//128 164//128 163//128
f 155//130 160//130 158//130
f 159//131 161//131 157//131 85//131
f 164//132 172//132 166//132
f 161//129 170//129 157//129
f 18//133 91//133 92//133 19//133
f 92//134 94//134 22//134
f 42//24 111//24 114//24
f 45//25 114//25 115//25
f 38//135 31//135 44//135
f 62//106 135//106 134//106
f 64//136 138//136 137//136
f 137//106 135//106 62//106
f 81//137 158//137 86//137
f 85//123 156//123 84//123
f 90//124 159//124 85//124
f 158//138 90//138 89//138
f 158//138 89//138 86//138
f 12//48 13//48 49//48 48//48
f 16//139 17//139 51//139
f 13//140 16//140 49//140
f 141//108 142//108 109//108 106//108
f 109//141 144//141 110//141
f 34//21 68//21 65//21
f 36//142 37//142 69//142 68//142
f 39//36 70//36 69//36 37//36
f 47//143 81//143 80//143 46//143
f 46//36 80//36 70//36 39//36
f 162//94 166//94 128//94
f 165//144 81//144 117//144
f 166//95 133//95 132//95
f 133//98 165//98 130//98
f 8//3 23//3 24//3 9//3
f 8//4 10//4 25//4 23//4
f 15//145 32//145 34//145 17//145
f 21//8 22//8 42//8 40//8
f 9//146 24//146 32//146 15//146
f 10//9 21//9 40//9 25//9
f 51//147 65//147 66//147 50//147
f 57//148 72//148 73//148 58//148
f 73//42 74//42 60//42 58//42
f 82//149 84//149 64//149 63//149
f 50//66 66//66 72//66 57//66
f 74//63 82//63 63//63 60//63
f 94//150 100//150 112//150 111//150
f 104//75 120//75 121//75 103//75
f 101//76 103//76 121//76 118//76
f 110//78 128//78 127//78 108//78
f 108//80 127//80 120//80 104//80
f 100//90 101//90 118//90 112//90
f 156//107 157//107 140//107 138//107
f 151//151 163//151 162//151 144//151
f 154//152 169//152 168//152 152//152
f 167//115 169//115 154//115 150//115
f 152//128 168//128 163//128 151//128
f 157//116 167//116 150//116 140//116
f 17//153 34//153 65//153 51//153
f 144//154 162//154 128//154 110//154
f 22//155 94//155 111//155 42//155
f 84//156 156//156 138//156 64//156
f 117//157 81//157 47//157
f 47//158 38//158 117//158
f 117//159 38//159 44//159
f 47//160 46//160 38//160
f 172//161 165//161 133//161
f 164//162 171//162 172//162
f 169//163 171//163 164//163
f 169//164 157//164 171//164
